<?xml version="1.0" standalone="no"?><!DOCTYPE svg PUBLIC "-//W3C//DTD SVG 1.1//EN" "http://www.w3.org/Graphics/SVG/1.1/DTD/svg11.dtd"><svg class="icon" width="200px" height="200.00px" viewBox="0 0 1024 1024" version="1.1" xmlns="http://www.w3.org/2000/svg"><path fill="#333333" d="M933.376 925.696H95.744c-33.792 0-61.44-27.648-61.44-61.44v-260.608c0-10.752 8.192-19.456 18.944-20.48 41.984-3.072 74.752-37.888 74.752-79.872s-32.768-77.312-74.752-79.872c-10.752-0.512-18.944-9.728-18.944-20.48V165.376c0-33.792 27.648-61.44 61.44-61.44H153.6c11.264 0 20.48 9.216 20.48 20.48s-9.216 20.48-20.48 20.48H95.744c-11.264 0-20.48 9.216-20.48 20.48v220.16C129.024 397.824 168.96 446.464 168.96 503.296s-39.936 105.472-93.696 117.76v242.688c0 11.264 9.216 20.48 20.48 20.48h838.144c11.264 0 20.48-9.216 20.48-20.48v-241.664c-57.344-9.728-100.864-59.392-100.864-119.296s43.52-109.568 100.864-119.296V165.376c0-11.264-9.216-20.48-20.48-20.48H284.16c-11.264 0-20.48-9.216-20.48-20.48s9.216-20.48 20.48-20.48h649.216c33.792 0 61.44 27.648 61.44 61.44v237.056c0 11.264-9.216 20.48-20.48 20.48-44.032 0-80.384 35.84-80.384 80.384 0 44.032 35.84 80.384 80.384 80.384 11.264 0 20.48 9.216 20.48 20.48v260.096c0 33.792-27.136 61.44-61.44 61.44z"  /><path fill="#333333" d="M519.68 487.424c-5.12 0-10.24-2.048-14.336-6.144L349.696 326.144c-8.192-8.192-8.192-20.992 0-29.184 8.192-8.192 20.992-8.192 29.184 0l140.8 140.8 142.336-142.336c8.192-8.192 20.992-8.192 29.184 0 8.192 8.192 8.192 20.992 0 29.184L534.016 481.28c-4.096 4.096-9.216 6.144-14.336 6.144z"  /><path fill="#333333" d="M732.16 491.52H313.856c-11.264 0-20.48-9.216-20.48-20.48s9.216-20.48 20.48-20.48H732.16c11.264 0 20.48 9.216 20.48 20.48s-9.216 20.48-20.48 20.48zM732.16 626.176H313.856c-11.264 0-20.48-9.216-20.48-20.48s9.216-20.48 20.48-20.48H732.16c11.264 0 20.48 9.216 20.48 20.48s-9.216 20.48-20.48 20.48z"  /><path fill="#333333" d="M523.264 776.704c-11.264 0-20.48-9.216-20.48-20.48V455.68c0-11.264 9.216-20.48 20.48-20.48s20.48 9.216 20.48 20.48v300.544c0 11.264-9.216 20.48-20.48 20.48z"  /></svg>