<?xml version="1.0" standalone="no"?><!DOCTYPE svg PUBLIC "-//W3C//DTD SVG 1.1//EN" "http://www.w3.org/Graphics/SVG/1.1/DTD/svg11.dtd"><svg class="icon" width="200px" height="200.00px" viewBox="0 0 1024 1024" version="1.1" xmlns="http://www.w3.org/2000/svg"><path fill="#333333" d="M511.615 242.184c-64.741 0-117.228 52.48-117.228 117.228 0 64.738 52.487 117.22 117.228 117.22 64.744 0 117.221-52.482 117.221-117.22 0-64.748-52.477-117.228-117.22-117.228z m0 188.402c-38.962 0-70.55-31.113-70.55-69.482 0-38.38 31.588-69.481 70.55-69.481 38.972 0 70.544 31.101 70.544 69.481 0 38.37-31.572 69.482-70.544 69.482z m-0.049-329.103c-138.761 0-257.837 141.444-257.837 257.929 0 203.924 242.246 393.76 251.985 402.517l5.28 3.8h1.312l8.555-7.068c3.193-9.997 247.397-200.856 248.635-399.25 0.702-110.168-119.152-257.928-257.93-257.928z m0.01 609.87c-28.139-26.61-210.954-204.3-210.954-351.941 0-103.666 106.361-210.838 210.953-210.838 0 0 205.826 20.418 211.043 210.838 3.92 143.586-184.546 323.002-211.043 351.941zM511.618 922.063c-221.346 0-445.439-49.704-445.439-144.718 0-78.437 145.267-114.084 231.832-128.348l7.647 46.247c-140.298 23.124-192.59 62.64-192.59 82.101 0 39.883 155.249 97.83 398.551 97.83 243.28 0 398.529-57.947 398.529-97.83 0-19.415-52.154-58.862-192.063-82.031l7.647-46.247c86.381 14.309 231.305 49.979 231.305 128.278-0.001 95.014-224.072 144.718-445.419 144.718z" /></svg>